<svg width="200" height="54" viewBox="0 0 200 54" fill="none" xmlns="http://www.w3.org/2000/svg">
<path d="M27.9406 34.5715C24.4296 35.0373 20.8307 35.2596 17.1439 35.2382C16.2263 35.2297 15.4351 35.0117 14.7702 34.5843C13.0065 33.4388 11.2015 32.2954 9.35538 31.1542C7.8389 30.2118 6.90758 28.9552 5.40758 28.0512C3.6356 26.9805 3.20703 25.5764 3.04219 23.9479C2.95428 23.1187 3.39384 22.5631 4.36088 22.281C9.46528 20.7722 15.1274 19.5391 21.3471 18.5817C50.8032 14.0489 82.7565 11.0099 113.688 8.20817C113.726 8.20451 113.762 8.19132 113.791 8.17055C113.819 8.14977 113.838 8.12251 113.844 8.09276L113.894 7.83631C113.916 7.72945 113.858 7.67603 113.721 7.67603C96.9186 7.42385 80.0862 7.92393 63.2235 9.17627C61.3664 9.31305 59.5065 9.39853 57.6439 9.43272C54.7345 9.49043 48.6439 9.71482 49.1878 6.00909C49.2812 5.39788 49.3719 4.78239 49.4598 4.16263C49.5068 3.8347 49.6926 3.52823 49.988 3.29146C50.2835 3.05469 50.6717 2.90105 51.0917 2.85472C58.9268 1.97424 67.8005 1.32242 77.7126 0.899275C103.015 -0.184235 129.174 -0.395809 156.281 0.860807C164.776 1.24976 173.067 2.04262 181.155 3.2394C181.419 3.27837 181.665 3.37302 181.865 3.51312C182.065 3.65323 182.213 3.83348 182.292 4.0344C183.067 6.00268 182.985 7.99659 183.545 10.0097C183.974 11.5442 184.067 13.1727 183.825 14.8952C183.792 15.1089 183.677 15.2905 183.479 15.4401C181.724 16.7608 179.614 17.075 177.413 17.761C176.847 17.9405 176.869 18.0495 177.479 18.088C184.721 18.5539 191.77 19.2249 198.627 20.1011C199.479 20.208 199.891 20.5969 199.864 21.268C199.691 25.3969 200.556 28.7692 199.328 33.3533C198.801 35.3152 196.707 36.4436 194.317 36.7449C189.586 37.3433 184.369 37.8797 178.666 38.3541C178.331 38.384 178.127 38.5272 178.056 38.7837L177.792 39.7582C177.752 39.8991 177.663 40.0288 177.533 40.1329C177.404 40.237 177.24 40.3115 177.059 40.348L175.897 40.5789C175.545 40.6472 175.441 40.8097 175.583 41.0661L176.449 42.6561C176.564 42.8656 176.487 43.0173 176.218 43.1113C173.691 43.979 171.108 44.2589 168.471 43.9512C168.053 43.8999 167.963 44.011 168.199 44.2846L169.616 45.9323C169.666 45.9904 169.694 46.0584 169.697 46.1283C169.699 46.1981 169.676 46.2672 169.631 46.3274C169.585 46.3876 169.519 46.4367 169.439 46.4688C169.359 46.501 169.269 46.515 169.18 46.5093C158.042 45.8938 146.853 45.7955 135.611 46.2144C121.116 46.7529 105.963 47.4005 90.1494 48.157C86.3747 48.3408 82.3032 48.6186 77.9351 48.9905C73.7373 49.3495 69.5807 49.606 65.4653 49.7598C47.7675 50.4053 30.1741 51.6255 12.6851 53.4207C12.4048 53.4506 12.1548 53.5297 11.9351 53.6579C11.6878 53.8032 11.4186 53.908 11.1274 53.9721C10.8636 54.0319 10.6246 53.9956 10.4103 53.8631C9.75648 53.4613 9.08341 53.1685 8.3911 52.9847C6.44604 52.4718 4.44329 50.9652 3.45428 49.6893C2.45428 48.3942 2.18505 46.941 2.64659 45.3296C2.656 45.2947 2.65182 45.2584 2.63457 45.2253C2.61733 45.1922 2.5878 45.1639 2.54976 45.144C2.51173 45.124 2.46691 45.1133 2.42103 45.1133C2.37515 45.1132 2.3303 45.1238 2.29219 45.1437C1.95154 45.3232 1.66033 45.3318 1.41857 45.1694C1.17681 45.0027 1.13835 44.8125 1.30318 44.5987C1.50648 44.3252 1.59165 44.0388 1.55868 43.7396C1.52571 43.4917 1.35263 43.3485 1.03945 43.3101C0.32516 43.2246 -0.0209939 42.9468 0.000984091 42.4766C0.0064786 42.2415 0.124611 42.047 0.35538 41.8932C2.37736 40.5169 4.58066 39.5359 6.96527 38.9504C13.751 37.292 20.729 35.9456 27.8994 34.9113C28.0092 34.8984 28.0532 34.8493 28.0312 34.7638L27.9983 34.6035C27.9928 34.5779 27.9735 34.5672 27.9406 34.5715Z" fill="#61ADC4"/>
</svg>
