<svg width="376" height="60" viewBox="0 0 376 60" fill="none" xmlns="http://www.w3.org/2000/svg">
<path d="M52.5283 38.4127C45.9276 38.9304 39.1617 39.1773 32.2304 39.1536C30.5054 39.1441 29.0179 38.9019 27.768 38.427C24.4522 37.1542 21.0589 35.8838 17.5881 34.6158C14.7371 33.5686 12.9863 32.1724 10.1663 31.168C6.83493 29.9783 6.02922 28.4182 5.71933 26.6088C5.55405 25.6875 6.38043 25.0701 8.19845 24.7566C17.7947 23.0802 28.4394 21.7101 40.1326 20.6463C95.51 15.6098 155.582 12.2332 213.733 9.12018C213.806 9.11612 213.873 9.10147 213.926 9.07839C213.979 9.0553 214.015 9.02501 214.028 8.99196L214.121 8.70701C214.162 8.58828 214.053 8.52892 213.795 8.52892C182.207 8.24872 150.562 8.80437 118.86 10.1959C115.369 10.3478 111.872 10.4428 108.37 10.4808C102.901 10.5449 91.4505 10.7942 92.4731 6.67676C92.6487 5.99764 92.8192 5.31377 92.9844 4.62514C93.0728 4.26078 93.4221 3.92026 93.9775 3.65718C94.5329 3.3941 95.2628 3.22339 96.0523 3.17192C110.782 2.1936 127.465 1.46936 146.1 0.999195C193.668 -0.204706 242.847 -0.439788 293.809 0.956452C309.779 1.38862 325.366 2.26958 340.571 3.59934C341.068 3.64263 341.529 3.7478 341.906 3.90347C342.283 4.05914 342.561 4.25942 342.71 4.48267C344.166 6.66964 344.011 8.8851 345.065 11.1219C345.87 12.8269 346.046 14.6363 345.591 16.5502C345.53 16.7876 345.313 16.9895 344.941 17.1557C341.64 18.6232 337.674 18.9722 333.537 19.7345C332.473 19.9339 332.514 20.055 333.661 20.0978C347.275 20.6154 360.528 21.361 373.42 22.3346C375.021 22.4533 375.795 22.8855 375.744 23.6311C375.418 28.2188 377.045 31.9658 374.737 37.0592C373.745 39.2391 369.809 40.4928 365.316 40.8277C356.422 41.4925 346.614 42.0885 335.892 42.6157C335.262 42.6489 334.88 42.808 334.745 43.093L334.249 44.1758C334.174 44.3324 334.006 44.4764 333.763 44.5921C333.519 44.7078 333.21 44.7905 332.87 44.8312L330.686 45.0876C330.025 45.1636 329.828 45.3441 330.097 45.629L331.724 47.3957C331.941 47.6284 331.796 47.797 331.29 47.9015C326.538 48.8655 321.683 49.1766 316.725 48.8347C315.94 48.7777 315.77 48.9012 316.214 49.2051L318.879 51.0359C318.973 51.1005 319.025 51.176 319.03 51.2536C319.035 51.3313 318.992 51.408 318.906 51.4749C318.82 51.5418 318.695 51.5963 318.545 51.632C318.395 51.6678 318.226 51.6834 318.058 51.677C297.119 50.9931 276.083 50.8839 254.949 51.3493C227.699 51.9477 199.21 52.6672 169.481 53.5078C162.384 53.712 154.73 54.0207 146.518 54.4339C138.626 54.8328 130.812 55.1177 123.075 55.2887C89.8029 56.0058 56.7273 57.3617 23.8479 59.3563C23.3211 59.3896 22.8511 59.4774 22.4379 59.6199C21.9731 59.7814 21.4669 59.8977 20.9194 59.969C20.4236 60.0355 19.9743 59.9951 19.5714 59.8479C18.3422 59.4015 17.0768 59.0761 15.7753 58.8719C12.1186 58.302 8.35339 56.628 6.49405 55.2104C4.61405 53.7714 4.1079 52.1567 4.97559 50.3663C4.99329 50.3274 4.98542 50.2871 4.953 50.2504C4.92058 50.2136 4.86506 50.1821 4.79356 50.16C4.72205 50.1378 4.63779 50.1259 4.55154 50.1259C4.46529 50.1258 4.38096 50.1376 4.30933 50.1597C3.66889 50.3591 3.12141 50.3686 2.66691 50.1882C2.2124 50.003 2.14009 49.7916 2.44998 49.5542C2.83218 49.2502 2.99229 48.932 2.93032 48.5996C2.86834 48.3241 2.54295 48.165 1.95416 48.1223C0.611301 48.0273 -0.0394686 47.7186 0.00185009 47.1962C0.0121798 46.935 0.234268 46.7189 0.668115 46.548C4.46944 45.0188 8.61164 43.9288 13.0947 43.2782C25.8519 41.4355 38.9706 39.9396 52.4508 38.7903C52.6574 38.776 52.74 38.7214 52.6987 38.6264L52.6367 38.4483C52.6264 38.4199 52.5902 38.408 52.5283 38.4127Z" fill="#61ADC4"/>
</svg>
